<?xml version="1.0" standalone="no"?><!DOCTYPE svg PUBLIC "-//W3C//DTD SVG 1.1//EN" "http://www.w3.org/Graphics/SVG/1.1/DTD/svg11.dtd"><svg t="1554826360597" class="icon" style="" viewBox="0 0 1024 1024" version="1.1" xmlns="http://www.w3.org/2000/svg" p-id="5389" xmlns:xlink="http://www.w3.org/1999/xlink" width="18" height="18"><defs><style type="text/css"></style></defs><path d="M786.908941 434.594752H237.095051s13.682821 104.460507-98.077186 215.485974l106.036377 25.345656 36.405686-25.345656 1.835355 34.383703s119.654327 41.431703 228.703719 41.431703c140.855215 0 228.711704-41.431703 228.711703-41.431703L742.542068 650.080726l36.401694 25.345656 106.032385-25.345656c-111.75901-111.025467-98.067206-215.485974-98.067206-215.485974z" fill="#1A1A1A" p-id="5390"></path><path d="M512.000998 737.395291c-109.723054 0-227.506098-40.344862-232.466246-42.065444l-7.306487-2.528977-1.14772-21.486321-23.685952 16.492241-131.117557-31.339749 14.637924-14.543113c105.909629-105.213012 94.8985-204.879043 94.773748-205.876062l-1.604812-12.917342 13.010157-0.035929h562.916863l-1.703616 12.993192c-0.118764 0.957099-11.138875 100.623129 94.771752 205.835143l14.637924 14.543113-131.112567 31.340747-23.677968-16.487251-1.097819 20.615052-6.211662 2.928184c-3.682685 1.738547-91.81762 42.532516-233.615962 42.532516z m-217.64269-61.400039c27.387599 8.74463 126.997741 38.404716 217.641692 38.404715 115.897789 0 195.5366-28.703984 217.610754-37.686143l2.549935-47.872908 49.123424 34.201065 81.475164-19.474318c-79.587912-86.627929-88.012179-166.837606-87.927347-197.477744H249.169068c0.082835 30.639141-8.346421 110.849816-87.933335 197.477744l81.478158 19.474318 49.126418-34.197073 2.517999 47.150344z" fill="" p-id="5391"></path><path d="M744.913358 1017.013877c0-136.728413-104.06629-232.439299-232.4393-232.4393S280.033761 880.285464 280.033761 1017.013877h464.879597z" fill="#1A1A1A" p-id="5392"></path><path d="M747.532156 1024H263.493615v-9.63586c0-136.786298 105.231975-243.939456 242.019271-243.939456S747.532156 877.577842 747.532156 1014.36414V1024z m-455.719791-20.95837h441.322389c-5.788502-115.770043-100.625125-209.44697-220.661694-209.446969S297.599869 887.271587 291.812365 1003.04163z" fill="" p-id="5393"></path><path d="M511.998004 450.576008m-271.010684 0a271.010684 271.010684 0 1 0 542.021368 0 271.010684 271.010684 0 1 0-542.021368 0Z" fill="#F8EDD2" p-id="5394"></path><path d="M511.998004 733.083855c-155.775579 0-282.508845-126.730272-282.508845-282.505851s126.733266-282.510841 282.508845-282.510841c155.774581 0 282.506849 126.735262 282.506849 282.510841S667.772585 733.083855 511.998004 733.083855z m0-542.021368c-143.095765 0-259.513521 116.418754-259.513521 259.515517s116.417756 259.510527 259.513521 259.510527S771.510527 593.674767 771.510527 450.578004 655.093769 191.062487 511.998004 191.062487z" fill="" p-id="5395"></path><path d="M432.276357 792.806227s50.335018 113.546459 79.727635 113.546459c29.575254 0 79.714661-113.546459 79.714661-113.546459s-43.154281-16.350522-78.052962-16.350523c-33.605249 0-81.389334 16.350522-81.389334 16.350523z" fill="#F8EDD2" p-id="5396"></path><path d="M512.003992 917.850847c-33.278897 0-74.192629-84.188773-90.237758-120.388868l-5.087894-11.471215 11.87641-4.064925c2.025976-0.691626 49.995692-16.968295 85.110941-16.968296 36.582335 0 80.283531 16.397429 82.126869 17.094046l11.344467 4.298462-4.901265 11.097956c-15.98425 36.200095-56.777222 120.40284-90.23177 120.40284z m-63.850173-117.954703c23.921484 50.944807 53.1634 94.864568 63.850173 94.959379 10.750646 0 40.085377-44.090422 63.991891-95.246808-14.650899-4.62182-40.520513-11.65485-62.330192-11.65485-21.387517 0-49.645388 7.289521-65.511872 11.942279z" fill="" p-id="5397"></path><path d="M243.551227 375.077972S274.933891 91.887481 499.547734 26.163032c224.617835-65.725448 331.970597 110.716082 331.970598 110.716081H725.976972s54.342059 121.745174 46.086457 238.197861H243.551227z" fill="#1A1A1A" p-id="5398"></path><path d="M782.775152 386.577131H230.709735l1.413193-12.764645c0.329346-2.964112 8.465185-73.539926 44.730151-153.305485C325.279887 113.987583 401.170144 42.971644 496.318149 15.129947 530.632989 5.086896 564.411893-0.000998 596.714729-0.000998c163.113004 0 241.373553 125.558599 244.626092 130.902984l10.630884 17.475288H743.126906c14.542115 37.416678 47.083477 133.319184 40.405741 227.51508l-0.757495 10.684777zM256.901709 363.581807h504.271352c4.104846-109.03043-45.180257-220.863293-45.695235-222.017999l-7.224649-16.181858h100.509355C781.502679 92.115029 711.087547 22.994326 596.714729 22.994326c-30.117177 0-61.722399 4.778508-93.938408 14.205782C314.821661 92.195869 266.295051 308.55411 256.901709 363.581807z" fill="" p-id="5399"></path><path d="M107.552366 432.871176h808.891276s-404.445638-282.499863-808.891276 0z" fill="#1A1A1A" p-id="5400"></path><path d="M952.986057 444.370335H71.013943l29.954501-20.924437c121.244169-84.687782 254.49449-127.628488 396.050314-127.628488 240.501286 0 418.545631 122.418836 426.00681 127.628488l29.960489 20.924437z m-807.246543-22.995324h729.663648c-62.801256-35.230022-205.461885-102.563276-378.385402-102.563276-124.574554 0.000998-242.574168 34.484502-351.278246 102.563276z" fill="" p-id="5401"></path><path d="M246.091182 270.609481h531.813644v79.22164h-531.813644z" fill="#C90505" p-id="5402"></path><path d="M789.401989 361.327285H234.593021v-102.216963h554.808968v102.216963z m-531.813644-22.995323h508.81832v-56.226316H257.588345v56.226316z" fill="" p-id="5403"></path><path d="M511.998004 713.420912l-43.380831-166.529218 43.380831-29.366669 43.380831 29.366669z" fill="#C90505" p-id="5404"></path><path d="M511.998004 759.030317l-56.55666-217.103761 56.55666-38.283955 56.555662 38.283955-56.555662 217.103761z m-30.206001-207.169494l30.206001 115.951682 30.205003-115.951682-30.205003-20.453373-30.206001 20.453373z" fill="" p-id="5405"></path><path d="M534.784742 954.823407c0 12.586-10.19974 22.786738-22.78574 22.786738-12.58101 0-22.787736-10.200738-22.787736-22.786738 0-12.583006 10.206726-22.784742 22.787736-22.784742 12.586 0 22.78574 10.201736 22.78574 22.784742z" fill="#C90505" p-id="5406"></path><path d="M511.999002 989.109304c-18.906446 0-34.286895-15.382445-34.286895-34.286895 0-18.903452 15.380449-34.281905 34.286895-34.281904 18.903452 0 34.282903 15.378453 34.282903 34.281904 0.000998 18.90445-15.378453 34.286895-34.282903 34.286895z m0-45.572478c-6.225634 0-11.291571 5.061945-11.291571 11.286581 0 6.224636 5.064939 11.291571 11.291571 11.291572 6.223638 0 11.287579-5.065937 11.287579-11.291572 0.000998-6.225634-5.062943-11.286581-11.287579-11.286581z" fill="" p-id="5407"></path><path d="M302.670796 498.410992m-18.957344 0a18.957344 18.957344 0 1 0 37.914689 0 18.957344 18.957344 0 1 0-37.914689 0Z" fill="#FFFFFF" p-id="5408"></path></svg>